<mxfile host="app.diagrams.net" agent="Mozilla/5.0 (Macintosh; Intel Mac OS X 10_15_7) AppleWebKit/605.1.15 (KHTML, like Gecko) Version/18.3 Safari/605.1.15" version="26.0.15">
  <diagram name="Page-1" id="Za5r7vRSSpxMHkHjDhww">
    <mxGraphModel dx="998" dy="968" grid="1" gridSize="10" guides="1" tooltips="1" connect="1" arrows="1" fold="1" page="1" pageScale="1" pageWidth="850" pageHeight="1100" math="0" shadow="0">
      <root>
        <mxCell id="0" />
        <mxCell id="1" parent="0" />
        <mxCell id="nnyxv8lna_Qs402GClRL-28" style="edgeStyle=orthogonalEdgeStyle;rounded=0;orthogonalLoop=1;jettySize=auto;html=1;exitX=0.5;exitY=1;exitDx=0;exitDy=0;entryX=0.5;entryY=0;entryDx=0;entryDy=0;" edge="1" parent="1" source="nnyxv8lna_Qs402GClRL-25" target="nnyxv8lna_Qs402GClRL-26">
          <mxGeometry relative="1" as="geometry" />
        </mxCell>
        <mxCell id="nnyxv8lna_Qs402GClRL-25" value="&lt;font style=&quot;font-size: 18px;&quot;&gt;User&lt;/font&gt;" style="ellipse;whiteSpace=wrap;html=1;fillColor=#dae8fc;strokeColor=#6c8ebf;" vertex="1" parent="1">
          <mxGeometry x="368" y="30" width="115" height="70" as="geometry" />
        </mxCell>
        <mxCell id="nnyxv8lna_Qs402GClRL-36" style="edgeStyle=orthogonalEdgeStyle;rounded=0;orthogonalLoop=1;jettySize=auto;html=1;entryX=0.5;entryY=0;entryDx=0;entryDy=0;" edge="1" parent="1" source="nnyxv8lna_Qs402GClRL-26" target="nnyxv8lna_Qs402GClRL-34">
          <mxGeometry relative="1" as="geometry" />
        </mxCell>
        <mxCell id="nnyxv8lna_Qs402GClRL-26" value="&lt;font style=&quot;font-size: 18px;&quot;&gt;Login&lt;/font&gt;" style="ellipse;whiteSpace=wrap;html=1;fillColor=#dae8fc;strokeColor=#6c8ebf;" vertex="1" parent="1">
          <mxGeometry x="368" y="160" width="115" height="70" as="geometry" />
        </mxCell>
        <mxCell id="nnyxv8lna_Qs402GClRL-30" style="edgeStyle=orthogonalEdgeStyle;rounded=0;orthogonalLoop=1;jettySize=auto;html=1;exitX=0.989;exitY=0.853;exitDx=0;exitDy=0;entryX=0;entryY=1;entryDx=0;entryDy=0;exitPerimeter=0;" edge="1" parent="1" source="nnyxv8lna_Qs402GClRL-27" target="nnyxv8lna_Qs402GClRL-26">
          <mxGeometry relative="1" as="geometry" />
        </mxCell>
        <mxCell id="nnyxv8lna_Qs402GClRL-27" value="&lt;font style=&quot;font-size: 18px;&quot;&gt;User Database&lt;/font&gt;" style="rounded=0;whiteSpace=wrap;html=1;fillColor=#d5e8d4;strokeColor=#82b366;" vertex="1" parent="1">
          <mxGeometry x="90" y="170" width="120" height="60" as="geometry" />
        </mxCell>
        <mxCell id="nnyxv8lna_Qs402GClRL-29" style="edgeStyle=orthogonalEdgeStyle;rounded=0;orthogonalLoop=1;jettySize=auto;html=1;exitX=0;exitY=0.5;exitDx=0;exitDy=0;entryX=1.01;entryY=0.408;entryDx=0;entryDy=0;entryPerimeter=0;" edge="1" parent="1" source="nnyxv8lna_Qs402GClRL-26" target="nnyxv8lna_Qs402GClRL-27">
          <mxGeometry relative="1" as="geometry" />
        </mxCell>
        <mxCell id="nnyxv8lna_Qs402GClRL-31" value="Verity" style="text;html=1;align=center;verticalAlign=middle;whiteSpace=wrap;rounded=0;" vertex="1" parent="1">
          <mxGeometry x="260" y="160" width="60" height="30" as="geometry" />
        </mxCell>
        <mxCell id="nnyxv8lna_Qs402GClRL-32" value="Confirm Account" style="text;html=1;align=center;verticalAlign=middle;whiteSpace=wrap;rounded=0;" vertex="1" parent="1">
          <mxGeometry x="225" y="220" width="130" height="30" as="geometry" />
        </mxCell>
        <mxCell id="nnyxv8lna_Qs402GClRL-33" value="Login Details" style="text;html=1;align=center;verticalAlign=middle;whiteSpace=wrap;rounded=0;" vertex="1" parent="1">
          <mxGeometry x="410" y="110" width="130" height="30" as="geometry" />
        </mxCell>
        <mxCell id="nnyxv8lna_Qs402GClRL-40" style="edgeStyle=orthogonalEdgeStyle;rounded=0;orthogonalLoop=1;jettySize=auto;html=1;" edge="1" parent="1" source="nnyxv8lna_Qs402GClRL-34" target="nnyxv8lna_Qs402GClRL-38">
          <mxGeometry relative="1" as="geometry" />
        </mxCell>
        <mxCell id="nnyxv8lna_Qs402GClRL-43" style="edgeStyle=orthogonalEdgeStyle;rounded=0;orthogonalLoop=1;jettySize=auto;html=1;exitX=1;exitY=1;exitDx=0;exitDy=0;entryX=0.25;entryY=0;entryDx=0;entryDy=0;" edge="1" parent="1" source="nnyxv8lna_Qs402GClRL-34" target="nnyxv8lna_Qs402GClRL-35">
          <mxGeometry relative="1" as="geometry" />
        </mxCell>
        <mxCell id="nnyxv8lna_Qs402GClRL-34" value="&lt;font style=&quot;font-size: 18px;&quot;&gt;Select Project Page&lt;/font&gt;" style="ellipse;whiteSpace=wrap;html=1;fillColor=#dae8fc;strokeColor=#6c8ebf;" vertex="1" parent="1">
          <mxGeometry x="368" y="320" width="115" height="70" as="geometry" />
        </mxCell>
        <mxCell id="nnyxv8lna_Qs402GClRL-42" style="edgeStyle=orthogonalEdgeStyle;rounded=0;orthogonalLoop=1;jettySize=auto;html=1;entryX=1;entryY=0.5;entryDx=0;entryDy=0;exitX=0.5;exitY=0;exitDx=0;exitDy=0;" edge="1" parent="1" source="nnyxv8lna_Qs402GClRL-35" target="nnyxv8lna_Qs402GClRL-34">
          <mxGeometry relative="1" as="geometry" />
        </mxCell>
        <mxCell id="nnyxv8lna_Qs402GClRL-44" style="edgeStyle=orthogonalEdgeStyle;rounded=0;orthogonalLoop=1;jettySize=auto;html=1;exitX=0;exitY=0.5;exitDx=0;exitDy=0;entryX=1;entryY=0.5;entryDx=0;entryDy=0;" edge="1" parent="1" source="nnyxv8lna_Qs402GClRL-35" target="nnyxv8lna_Qs402GClRL-38">
          <mxGeometry relative="1" as="geometry" />
        </mxCell>
        <mxCell id="nnyxv8lna_Qs402GClRL-35" value="&lt;font style=&quot;font-size: 18px;&quot;&gt;Project Database&lt;/font&gt;" style="rounded=0;whiteSpace=wrap;html=1;fillColor=#d5e8d4;strokeColor=#82b366;" vertex="1" parent="1">
          <mxGeometry x="670" y="455" width="120" height="60" as="geometry" />
        </mxCell>
        <mxCell id="nnyxv8lna_Qs402GClRL-37" value="Project Search" style="text;html=1;align=center;verticalAlign=middle;whiteSpace=wrap;rounded=0;" vertex="1" parent="1">
          <mxGeometry x="420" y="250" width="130" height="30" as="geometry" />
        </mxCell>
        <mxCell id="nnyxv8lna_Qs402GClRL-41" style="edgeStyle=orthogonalEdgeStyle;rounded=0;orthogonalLoop=1;jettySize=auto;html=1;" edge="1" parent="1" source="nnyxv8lna_Qs402GClRL-38" target="nnyxv8lna_Qs402GClRL-39">
          <mxGeometry relative="1" as="geometry" />
        </mxCell>
        <mxCell id="nnyxv8lna_Qs402GClRL-38" value="&lt;font style=&quot;font-size: 18px;&quot;&gt;Project Overview/Edit&lt;/font&gt;" style="ellipse;whiteSpace=wrap;html=1;fillColor=#dae8fc;strokeColor=#6c8ebf;" vertex="1" parent="1">
          <mxGeometry x="368" y="450" width="115" height="70" as="geometry" />
        </mxCell>
        <mxCell id="nnyxv8lna_Qs402GClRL-45" style="edgeStyle=orthogonalEdgeStyle;rounded=0;orthogonalLoop=1;jettySize=auto;html=1;" edge="1" parent="1" source="nnyxv8lna_Qs402GClRL-39" target="nnyxv8lna_Qs402GClRL-35">
          <mxGeometry relative="1" as="geometry" />
        </mxCell>
        <mxCell id="nnyxv8lna_Qs402GClRL-39" value="&lt;font style=&quot;font-size: 18px;&quot;&gt;Save/Export Project&lt;/font&gt;" style="ellipse;whiteSpace=wrap;html=1;fillColor=#dae8fc;strokeColor=#6c8ebf;" vertex="1" parent="1">
          <mxGeometry x="368" y="600" width="115" height="70" as="geometry" />
        </mxCell>
        <mxCell id="nnyxv8lna_Qs402GClRL-46" value="Project Details" style="text;html=1;align=center;verticalAlign=middle;whiteSpace=wrap;rounded=0;" vertex="1" parent="1">
          <mxGeometry x="560" y="320" width="130" height="30" as="geometry" />
        </mxCell>
        <mxCell id="nnyxv8lna_Qs402GClRL-47" value="Selection data" style="text;html=1;align=center;verticalAlign=middle;whiteSpace=wrap;rounded=0;" vertex="1" parent="1">
          <mxGeometry x="510" y="380" width="130" height="30" as="geometry" />
        </mxCell>
        <mxCell id="nnyxv8lna_Qs402GClRL-48" value="Project Details" style="text;html=1;align=center;verticalAlign=middle;whiteSpace=wrap;rounded=0;" vertex="1" parent="1">
          <mxGeometry x="510" y="490" width="130" height="30" as="geometry" />
        </mxCell>
        <mxCell id="nnyxv8lna_Qs402GClRL-49" value="Update Project&amp;nbsp;" style="text;html=1;align=center;verticalAlign=middle;whiteSpace=wrap;rounded=0;" vertex="1" parent="1">
          <mxGeometry x="530" y="640" width="130" height="30" as="geometry" />
        </mxCell>
      </root>
    </mxGraphModel>
  </diagram>
</mxfile>
